<?xml version="1.0" encoding="iso-8859-1"?>
<!-- Generator: Adobe Illustrator 19.0.0, SVG Export Plug-In . SVG Version: 6.00 Build 0)  -->
<svg version="1.1" id="Layer_1" xmlns="http://www.w3.org/2000/svg" xmlns:xlink="http://www.w3.org/1999/xlink" x="0px" y="0px"
	 viewBox="0 0 512 512" style="enable-background:new 0 0 512 512; fill: #ffffff" xml:space="preserve">
<g>
	<g>
		<g>
			<path d="M192,170.667v-21.333c0-11.782-9.551-21.333-21.333-21.333c-11.782,0-21.333,9.551-21.333,21.333v21.333h-42.667v-21.333
				c0-11.782-9.551-21.333-21.333-21.333C73.551,128,64,137.551,64,149.333v21.333c-23.558,0-42.667,19.109-42.667,42.667v128
				v149.333c0,11.782,9.551,21.333,21.333,21.333h170.667c11.782,0,21.333-9.551,21.333-21.333V341.333v-128
				C234.667,189.775,215.558,170.667,192,170.667z M64,213.333h128V320H64V213.333z M192,469.333H64V362.667h128V469.333z"/>
			<path d="M448,42.667V21.333C448,9.551,438.449,0,426.667,0c-11.782,0-21.333,9.551-21.333,21.333v21.333h-42.667V21.333
				C362.667,9.551,353.115,0,341.333,0C329.551,0,320,9.551,320,21.333v21.333c-23.558,0-42.667,19.109-42.667,42.667v128v128
				v149.333c0,11.782,9.551,21.333,21.333,21.333h170.667c11.782,0,21.333-9.551,21.333-21.333V341.333v-128v-128
				C490.667,61.775,471.558,42.667,448,42.667z M320,234.667h128V320H320V234.667z M320,85.333h128V192H320V85.333z M448,469.333
				H320V362.667h128V469.333z"/>
		</g>
	</g>
</g>
<g>
</g>
<g>
</g>
<g>
</g>
<g>
</g>
<g>
</g>
<g>
</g>
<g>
</g>
<g>
</g>
<g>
</g>
<g>
</g>
<g>
</g>
<g>
</g>
<g>
</g>
<g>
</g>
<g>
</g>
</svg>
